/* XPM */
static char *c852dcde685c6f34dd8acc4906969888[] = {
/* columns rows colors chars-per-pixel */
"32 32 46 1 ",
"  c #658A16",
". c #678C1A",
"X c #6A8F1C",
"o c #6D931E",
"O c #6D9220",
"+ c #719622",
"@ c #759B25",
"# c #799F26",
"$ c #779C28",
"% c #799E29",
"& c #7BA127",
"* c #7DA32B",
"= c #7FA430",
"- c #80A62E",
"; c #83A92E",
": c #81A631",
"> c #83A931",
", c #84AA30",
"< c #87AD33",
"1 c #85AB34",
"2 c #87AD34",
"3 c #88AF33",
"4 c #88AE34",
"5 c #8AB132",
"6 c #8AB036",
"7 c #8CB336",
"8 c #8DB435",
"9 c #8AB038",
"0 c #8CB239",
"q c #8EB43B",
"w c #90B739",
"e c #90B63D",
"r c #92B93B",
"t c #93BA3D",
"y c #94BB3D",
"u c #97BE3F",
"i c #98BF3F",
"p c #93B941",
"a c #95BB40",
"s c #96BC40",
"d c #98BF40",
"f c #99C042",
"g c #9AC145",
"h c #9CC345",
"j c #9EC548",
"k c #A0C747",
/* pixels */
"&>;*#****##*,**0&*4,*-<;;3664:%%",
"*qq<*---,,&*2**po#4,#>0**43,;%++",
"*<,,;*&&5u6###+*@#,,*00#&2-##%&%",
"-2-<3<4<5uh7->>,-*,,,9*o#2<;*,4*",
":,*6r886-;yt,<7a*,7<-;*@&-<6<4q5",
"*#+6f8;<-&<6--;<,<q4*>42-&*;--8f",
"*%+*rr577;7q<*&-,<3<*-42-*-;*#;d",
"*1**;w873-qt<*&&t6;>-#*--<00,#@4",
"*,4<<5--;-64&:2400;-,&*4,-,>*#&3",
"*>*-<6##666&o*4,&>&*9;-q4&**&>0w",
"-2%+*w<<ur7*O$%%#*+%9;#:>-<,;60,",
"&-,&#00qd8<-$+o%q4%&,*@@&,6,--*@",
"+&t0#***-&##%@o&sw<*&**@@*>*&#@#",
"%>t6@>2##%&&<e44;;6-+*4*#*,76**2",
"*,:**qy<;<9-0jdu&*<*@,w3;<rft;-1",
"&+X%,07664>+@4<;9>>->tdrtruu;@*%",
"*+O+$$*;-*&#@%%&*>*--**6<&;<56*2",
":o.++o%,-**#@*=&*-;*-*&q2#666r-,",
"%%>0:@*4490,*::%&<t;54&**&63;4**",
"@>e0*%-,>>>*&#+ *eg<wt&@$%*4<;,*",
"-42%#-,-&@+@**@o-64#*2*#%&#07;9#",
"*-%+*0q69:$*1>*:-&@#@#***%#65<q*",
"&***26<<0,%%*%*02#@9,;<-;*&,5rt6",
"%:22,,374*#&@o+>,**q6we,<62-4s6-",
"@*,>*-wt4;34-#@%*>**5r,&>92*->#+",
"+%>-#&;;&;tt4>*$&,*#rr@o@*-*#+%*",
"@%-,>--**6uq;*%++*,*77*&@*w6##9<",
">:*>1,>-->,-***%**;*-;201,eq>,,&",
"**&&***>*@+%--**07;5,-&>9&+:e4@@",
"+@&****2>#O$>*#+<<rg,**#*&++20%@",
"%*::*&&:3;%#-2>&&#rk<#,-&>*@*4*@",
"*$@@&&*2us1#*64***;ia@*e4*+*,#@*"
};
