/* XPM */
static char *dbcf6e9056024201932008a9e995860aHsAI8zXYTaGOWYck[] = {
/* columns rows colors chars-per-pixel */
"16 16 8 1 ",
"  c None",
". c #2E222F",
"X c #683535",
"o c #9E4539",
"O c #CD6F27",
"+ c #F79617",
"@ c #F9C22B",
"# c #FBE25B",
/* pixels */
"                ",
"          ..    ",
"         .##.   ",
"        .####.  ",
"        .#+O@@. ",
"        .@oX@#. ",
"       .#+@##O. ",
"      .#@XooO.  ",
"     .#@O....   ",
"    .#@O.       ",
"   .#+@.        ",
"  .#@oO@.       ",
"  .+@@X+.       ",
"   .O+..        ",
"    ..          ",
"                "
};
